<svg width="96px" height="22px" viewBox="14 13 96 22" version="1.1" xmlns="http://www.w3.org/2000/svg" xmlns:xlink="http://www.w3.org/1999/xlink">
    <!-- Generator: Sketch 3.7.1 (28215) - http://www.bohemiancoding.com/sketch -->
    <desc>Created with Sketch.</desc>
    <defs>
        <polygon id="path-1" points="0 21.7828191 95.8516364 21.7828191 95.8516364 0 0 0"></polygon>
    </defs>
    <g id="Cartwheel-Logo-Horizontal" stroke="none" stroke-width="1" fill="none" fill-rule="evenodd" transform="translate(14.000000, 13.000000)">
        <path d="M38.9205242,10.9192831 C38.5576014,11.2421091 37.798164,11.2579748 37.1324213,11.3803915 C36.4656906,11.5196759 35.8580748,11.7506476 35.8580748,12.5481096 C35.8580748,13.3637754 36.4790285,13.5620136 37.1781983,13.5620136 C38.8612446,13.5620136 38.9205242,12.210587 38.9205242,11.7337799 L38.9205242,10.9192831 L38.9205242,10.9192831 Z M41.8052995,13.1202781 L41.8052995,14.7683104 C41.5383767,14.8805396 41.1710079,14.9518519 40.6271177,14.9518519 C40.2819787,14.9518519 40.0038587,14.8997455 39.7749736,14.8090603 C39.3705551,14.6482319 39.14167,14.3628157 39.0300268,14.0319733 L39.0120782,14.0399897 C38.3308569,14.7626322 37.3278792,15.0231642 36.3741365,15.0231642 C34.8886889,15.0231642 33.7070491,14.2711284 33.7070491,12.6409659 C33.7070491,10.8422926 35.0395225,10.4129157 36.3741365,10.2283721 C37.6931074,10.0277958 38.9205242,10.074224 38.9205242,9.18173464 C38.9205242,8.24482124 38.2827746,8.10553679 37.5256425,8.10553679 C36.7069256,8.10553679 36.1763732,8.44539753 36.1004624,9.30515336 L33.9494367,9.30515336 C34.0711245,7.2616467 35.873718,6.64555516 37.6328398,6.64555516 C39.1930456,6.64555516 41.0715499,7.00011258 41.0715499,8.90633889 L41.0715499,12.4722881 C41.0904864,12.9945213 41.199989,13.2233219 41.8052995,13.1202781 L41.8052995,13.1202781 Z" id="Fill-1" fill="#404041"></path>
        <path d="M30.9870875,9.66283383 C30.8497564,8.77368464 30.291211,8.2978796 29.3988885,8.2978796 C28.0240961,8.2978796 27.5694545,9.70926198 27.5694545,10.8738069 C27.5694545,12.0076225 28.0084528,13.3725767 29.3542642,13.3725767 C30.3516432,13.3725767 30.9256672,12.7290959 31.0618456,11.7629561 L33.1313619,11.7629561 C32.8599931,13.8619094 31.4259211,15.0127597 29.3676021,15.0127597 C27.0110738,15.0127597 25.4228748,13.3261485 25.4228748,10.9507975 C25.4228748,8.4814211 26.8737427,6.65886567 29.4145317,6.65886567 C31.2596089,6.65886567 32.9515472,7.63753101 33.0867376,9.66283383 L30.9870875,9.66283383 Z" id="Fill-3" fill="#404041"></path>
        <path d="M42.4752247,6.87134962 L44.5167479,6.87134962 L44.5167479,8.34385683 L44.5470463,8.34385683 C44.9389503,7.34715466 45.9977496,6.65841475 47.0420583,6.65841475 C47.1917393,6.65841475 47.3736947,6.68780811 47.5100377,6.73323422 L47.5100377,8.75736799 C47.3122744,8.71093983 46.9951286,8.68037742 46.7370978,8.68037742 C45.1668473,8.68037742 44.6218045,9.83239679 44.6218045,11.2267444 L44.6218045,14.7982048 L42.4752247,14.7982048 L42.4752247,6.87134962 Z" id="Fill-5" fill="#404041"></path>
        <path d="M50.4526436,6.87134962 L52.0251993,6.87134962 L52.0251993,8.32799109 L50.4526436,8.32799109 L50.4526436,12.2530069 C50.4526436,12.988175 50.6347636,13.1738876 51.3594566,13.1738876 C51.586201,13.1738876 51.7973022,13.1591909 52.0251993,13.1115937 L52.0251993,14.8140706 C51.6621118,14.8751954 51.1931444,14.8900591 50.7697894,14.8900591 C49.4541118,14.8900591 48.3060638,14.5830989 48.3060638,13.0040407 L48.3060638,4.49599858 L50.4526436,4.49599858 L50.4526436,6.87134962 Z" id="Fill-7" fill="#404041"></path>
        <polygon id="Fill-9" fill="#404041" points="62.2889002 14.7981046 60.0830408 14.7981046 58.6914525 9.4787412 58.6603307 9.4787412 57.3301626 14.7981046 55.10866 14.7981046 52.6281386 6.87124941 54.8975588 6.87124941 56.3339362 12.2529067 56.3629173 12.2529067 57.6629516 6.87124941 59.7492638 6.87124941 61.0792672 12.2392121 61.1095657 12.2392121 62.5457784 6.87124941 64.7526257 6.87124941"></polygon>
        <path d="M65.2189585,3.85158252 L67.3666909,3.85158252 L67.3666909,7.97483653 L67.4113153,7.97483653 C67.9552055,7.08668939 68.892317,6.65848155 69.6930854,6.65848155 C71.9758436,6.65848155 72.5498676,7.9611419 72.5498676,9.92298178 L72.5498676,14.7982716 L70.4044405,14.7982716 L70.4044405,10.3229653 C70.4044405,9.01796686 70.0270271,8.37465306 69.029648,8.37465306 C67.8648041,8.37465306 67.3666909,9.03383259 67.3666909,10.6422841 L67.3666909,14.7982716 L65.2189585,14.7982716 L65.2189585,3.85158252 Z" id="Fill-11" fill="#404041"></path>
        <path d="M78.7565063,9.98477465 C78.5598957,8.88152154 78.0909283,8.29816351 77.0487602,8.29816351 C75.6873057,8.29816351 75.2954017,9.37085421 75.2641153,9.98477465 L78.7565063,9.98477465 Z M75.2641153,11.3644256 C75.3255355,12.7430744 75.9889729,13.3728606 77.1851033,13.3728606 C78.0461393,13.3728606 78.7408631,12.8347617 78.8781942,12.345429 L80.7657551,12.345429 C80.1625852,14.2155816 78.8781942,15.0130436 77.1101804,15.0130436 C74.6443142,15.0130436 73.1175355,13.2968721 73.1175355,10.8421924 C73.1175355,8.46583928 74.7368563,6.65914959 77.1101804,6.65914959 C79.768376,6.65914959 81.0549077,8.92678063 80.9030861,11.3644256 L75.2641153,11.3644256 Z" id="Fill-13" fill="#404041"></path>
        <path d="M87.1314113,9.98477465 C86.933648,8.88152154 86.4658333,8.29816351 85.4236652,8.29816351 C84.0622106,8.29816351 83.669154,9.37085421 83.6401729,9.98477465 L87.1314113,9.98477465 Z M83.6401729,11.3644256 C83.6992878,12.7430744 84.3638779,13.3728606 85.5600082,13.3728606 C86.4210443,13.3728606 87.1157681,12.8347617 87.2519465,12.345429 L89.141648,12.345429 C88.5363376,14.2155816 87.2519465,15.0130436 85.4829448,15.0130436 C83.0192192,15.0130436 81.4912878,13.2968721 81.4912878,10.8421924 C81.4912878,8.46583928 83.1096206,6.65914959 85.4829448,6.65914959 C88.1444336,6.65914959 89.42866,8.92678063 89.2768384,11.3644256 L83.6401729,11.3644256 Z" id="Fill-15" fill="#404041"></path>
        <mask id="mask-2" fill="white">
            <use xlink:href="#path-1"></use>
        </mask>
        <g id="Clip-18"></g>
        <polygon id="Fill-17" fill="#404041" mask="url(#mask-2)" points="90.0035403 14.7980545 92.1501201 14.7980545 92.1501201 3.85136541 90.0035403 3.85136541"></polygon>
        <polygon id="Fill-19" fill="#404041" mask="url(#mask-2)" points="94.0253804 13.6360314 93.6221146 13.6360314 93.6221146 14.7982382 93.2692364 14.7982382 93.2692364 13.6360314 92.8661352 13.6360314 92.8661352 13.3551244 94.0253804 13.3551244"></polygon>
        <polygon id="Fill-20" fill="#404041" mask="url(#mask-2)" points="95.8516693 14.7981046 95.5198683 14.7981046 95.5198683 13.7763513 95.5132816 13.7763513 95.1469009 14.7981046 94.9089592 14.7981046 94.543731 13.7763513 94.5371444 13.7763513 94.5371444 14.7981046 94.2053434 14.7981046 94.2053434 13.3561598 94.6744755 13.3561598 95.029659 14.3042627 95.3848425 13.3561598 95.8516693 13.3561598"></polygon>
        <path d="M22.0279657,15.012409 C21.9163225,14.5122208 21.6179485,14.0865181 21.1866895,13.8109553 C21.0821269,13.7438182 20.9699897,13.6877036 20.8555472,13.6424445 L21.0490292,15.3178661 C21.0490292,15.3178661 21.1282333,16.0535352 20.3393208,16.2489342 C20.3393208,16.2489342 19.4998559,16.4047525 19.3391424,15.4835378 L19.1514237,13.8241489 C18.4996775,14.2523567 18.1446587,15.0601732 18.3271081,15.8686576 C18.4382573,16.3708499 18.7374545,16.7977217 19.1672316,17.0707793 C19.4716981,17.2650093 19.8194717,17.366717 20.1748199,17.366717 C20.3180789,17.366717 20.4606792,17.3505173 20.6011389,17.3181178 C20.6765557,17.2997469 20.7485146,17.2783699 20.8198148,17.2528177 C21.7233345,16.9259836 22.2415369,15.962516 22.0279657,15.012409" id="Fill-21" fill="#4C4C4B" mask="url(#mask-2)"></path>
        <path d="M17.1439204,20.6711321 L9.14891527,20.1923209 C9.01652419,20.8533375 8.55595472,21.425005 7.89432864,21.6653291 L7.84805763,21.6825309 L7.84542298,21.6825309 C7.78844871,21.7014028 7.72851046,21.7184376 7.66741955,21.7326333 C7.55874031,21.7586865 7.44726175,21.770377 7.33611252,21.7765563 L17.1439204,21.3413341 C17.6449976,21.2716919 17.5990559,20.7407743 17.1439204,20.6711321" id="Fill-22" fill="#E8E8E8" mask="url(#mask-2)"></path>
        <path d="M8.66807547,18.4484595 C8.36113894,19.2612862 8.07956089,20.0113179 8.07956089,20.0113179 C8.07956089,20.0113179 7.80835678,20.8350001 6.93315952,20.5435716 C6.93315952,20.5435716 6.3171458,20.3131009 6.4169331,19.580939 C6.4169331,19.580939 6.44031561,19.4783962 6.46979074,19.3987335 C6.48214065,19.366 6.7493928,18.6558831 7.06439794,17.8206774 C6.9743259,17.8286938 6.88458319,17.8408854 6.79566381,17.8610933 C6.28256604,17.9800028 5.84801372,18.2951464 5.57071698,18.7469024 C5.2950669,19.1954851 5.20795883,19.7252337 5.3237187,20.2376134 C5.43947856,20.7555044 5.74740309,21.1954028 6.18969468,21.4781469 C6.50288851,21.6777211 6.86153002,21.782769 7.22856947,21.782769 C7.37512178,21.782769 7.52282676,21.7659012 7.66740309,21.7326667 C7.728494,21.718471 7.78843225,21.7014362 7.84540652,21.6825643 L7.84804117,21.6825643 L7.89431218,21.6653625 C8.82516638,21.3261698 9.359506,20.3334758 9.1393482,19.3554785 C9.0629434,19.0106076 8.89844254,18.7009752 8.66807547,18.4484595" id="Fill-23" fill="#4C4C4B" mask="url(#mask-2)"></path>
        <path d="M21.4591122,12.4176431 L20.7441345,12.6801793 L21.0489304,15.3178995 C21.0489304,15.3178995 21.1281345,16.0534016 20.339222,16.2489676 C20.339222,16.2489676 19.4997571,16.4047859 19.3392082,15.4834042 L19.0889166,13.277232 L12.9694518,15.4783939 C12.9694518,15.4783939 12.3252803,15.6791372 11.8128412,15.7160459 C11.8128412,15.7160459 11.350625,15.7496145 11.0664123,15.7193861 C11.0664123,15.7193861 10.6858703,15.6876546 10.5264741,15.6395564 C10.5264741,15.6395564 10.0267142,15.459188 9.70742779,15.8671879 C9.70742779,15.8671879 9.55939348,16.0821269 9.40641921,16.4867867 C9.25476226,16.8912794 8.07954443,20.0113179 8.07954443,20.0113179 C8.07954443,20.0113179 7.80834031,20.8350001 6.93314305,20.5435716 C6.93314305,20.5435716 6.31712933,20.3131009 6.41691664,19.580939 C6.41691664,19.580939 6.44029914,19.4783962 6.46977427,19.3987335 C6.4997434,19.3177348 8.09913962,15.0734002 8.09913962,15.0734002 C8.09913962,15.0734002 8.29854957,14.5651956 7.8814518,14.0970729 C7.8814518,14.0970729 7.52346895,13.6775495 7.44475883,13.5676584 L7.20846381,13.2211174 L8.88574683,12.6128752 C8.88574683,12.6128752 10.0308309,14.291804 11.9327177,13.9452629 C11.9327177,13.9452629 12.2720933,13.8752867 12.4031671,13.8328667 L21.6682374,10.5174291 L21.9233043,11.4451571 C21.9233043,11.4451571 22.0853352,12.0747763 21.4591122,12.4176431" id="Fill-24" fill="#BEBDBD" mask="url(#mask-2)"></path>
        <path d="M8.88568096,12.6128919 L8.86904974,12.5908469 C8.6782024,12.3369951 8.56935849,12.1380889 8.53115609,12.0656075 L7.79641852,10.7515907 L8.18749914,10.9388063 C8.49492967,11.0882783 9.03799657,11.2641374 9.87877873,11.2641374 C10.7287822,11.2641374 11.7151286,11.0841031 12.8144357,10.7265395 C15.7609605,9.65468385 18.9974614,8.46174759 19.1841921,8.36571814 C19.6709434,8.11520654 19.6324117,7.59614649 19.631259,7.5747695 L18.377331,-3.34015473e-05 L0,4.32713705 L0.29129331,5.08685525 C0.482634648,5.65685265 0.809660377,5.86561232 1.32160549,5.74820589 L2.81808576,5.40249987 L7.01162264,12.8775992 C7.0653036,12.983148 7.20839794,13.2211341 7.20839794,13.2211341 L8.88568096,12.6128919 Z" id="Fill-25" fill="#CB2026" mask="url(#mask-2)"></path>
        <path d="M8.92543122,7.32377357 C9.33940034,7.03217807 9.44116364,6.45750444 9.15250497,6.03714597 C8.86466964,5.61929261 8.29739691,5.51558081 7.88507444,5.80801136 C7.47143465,6.09877183 7.36818937,6.6746145 7.65569537,7.09413794 C7.9435307,7.51399539 8.51277942,7.61603711 8.92543122,7.32377357 M9.41564048,8.04123881 C10.2122923,7.48009282 10.4100556,6.37082743 9.85480343,5.56334502 C9.3028446,4.75636364 8.20683087,4.55662239 7.41133173,5.11927145 C6.61550326,5.68108548 6.42070395,6.79035086 6.97348611,7.59616319 C7.52758559,8.4036456 8.62063533,8.60388788 9.41564048,8.04123881 M6.24566449,8.11205009 C5.41245695,6.89573275 5.70572624,5.22565538 6.90564391,4.37959419 C8.10226827,3.53470205 9.75007616,3.8338129 10.582625,5.04929521 C11.4173146,6.26527854 11.120258,7.9351889 9.92429228,8.78041505 C8.72651527,9.62681026 7.07887204,9.3253613 6.24566449,8.11205009" id="Fill-26" fill="#FEFEFE" mask="url(#mask-2)"></path>
    </g>
</svg>